# xmcd
#
# Track frame offsets: 
#        150
#        14800
#        29012
#        43937
#        58437
#        71637
#        84212
#        94962
#        109550
#        125025
#        137212
#        151775
#        164887
#        177312
#        191962
#        204412
#        215737
#        229337
#        241562
#        256462
#        271325
#        281887
#        296350
#        312100
#
# Disc length: 4331 seconds
#
# Revision: 3
# Processed by: cddbd v1.5.2PL0 Copyright (c) Steve Scherf et al.
# Submitted via: ExactAudioCopy v1.1
#
DISCID=7c10e918
DTITLE=Xavier Cugat and His Orchestra - Cugat`s Favorite Rumbas - Mambo 
DTITLE=At The Waldorf
DYEAR=2000
DGENRE=Pop
TTITLE0=Begin The Beguine (mono)
TTITLE1=Estrellita (My Little Star) (mono)
TTITLE2=Green Eyes (Aquellos Ojos Verdes) (mono)
TTITLE3=La Paloma (The Dove) (mono)
TTITLE4=Yo Ta Namora (mono)
TTITLE5=Duerme (Time Was) (mono)
TTITLE6=Say 'Si Si' (Para Vigo Me Voy) (mono)
TTITLE7=La Golondrina (The Swallow) (mono)
TTITLE8=Besame Mucho (mono)
TTITLE9=Acercate Mas (mono)
TTITLE10=Negra Leono (mono)
TTITLE11=Cielito Lindo (mono)
TTITLE12=Mambo At The Waldorf (mono)
TTITLE13=Cuca (mono)
TTITLE14=Yo Quiero Un Mambo (mono)
TTITLE15=Mondongo (mono)
TTITLE16=Mambo Gallego (mono)
TTITLE17=Jamay (mono)
TTITLE18=Mambo Gordo (mono)
TTITLE19=Mambo En Espana (mono)
TTITLE20=Mambo No. 8 (mono)
TTITLE21=Sax Cantabile (mono)
TTITLE22=La Cumparsita (The Masked One) (mono)
TTITLE23=Mambo Retozon (mono)
EXTD=YEAR: 2000
EXTT0=
EXTT1=
EXTT2=
EXTT3=
EXTT4=
EXTT5=
EXTT6=
EXTT7=
EXTT8=
EXTT9=
EXTT10=
EXTT11=
EXTT12=
EXTT13=
EXTT14=
EXTT15=
EXTT16=
EXTT17=
EXTT18=
EXTT19=
EXTT20=
EXTT21=
EXTT22=
EXTT23=
PLAYORDER=
